<?xml version="1.0" encoding="UTF-8" standalone="no"?>
<!-- Generator: Adobe Illustrator 19.0.0, SVG Export Plug-In . SVG Version: 6.00 Build 0)  -->

<svg
   xmlns:dc="http://purl.org/dc/elements/1.1/"
   xmlns:cc="http://creativecommons.org/ns#"
   xmlns:rdf="http://www.w3.org/1999/02/22-rdf-syntax-ns#"
   xmlns:svg="http://www.w3.org/2000/svg"
   xmlns="http://www.w3.org/2000/svg"
   xmlns:xlink="http://www.w3.org/1999/xlink"
   xmlns:sodipodi="http://sodipodi.sourceforge.net/DTD/sodipodi-0.dtd"
   xmlns:inkscape="http://www.inkscape.org/namespaces/inkscape"
   version="1.1"
   id="Layer_1"
   x="0px"
   y="0px"
   viewBox="0 0 19.967767 19.176182"
   xml:space="preserve"
   sodipodi:docname="start.svg"
   inkscape:version="0.92.4 (5da689c313, 2019-01-14)"
   width="19.967768"
   height="19.176182"><metadata
   id="metadata43"><rdf:RDF><cc:Work
       rdf:about=""><dc:format>image/svg+xml</dc:format><dc:type
         rdf:resource="http://purl.org/dc/dcmitype/StillImage" /><dc:title /></cc:Work></rdf:RDF></metadata><defs
   id="defs41"><linearGradient
     inkscape:collect="always"
     id="linearGradient833-3"><stop
       style="stop-color:#ffff00;stop-opacity:1"
       offset="0"
       id="stop829" /><stop
       id="stop848"
       offset="0.56173986"
       style="stop-color:#00ffff;stop-opacity:1" /><stop
       style="stop-color:#ff00ff;stop-opacity:1"
       offset="1"
       id="stop831" /></linearGradient><linearGradient
     inkscape:collect="always"
     xlink:href="#linearGradient833-3"
     id="linearGradient841"
     gradientUnits="userSpaceOnUse"
     x1="79.609833"
     y1="99.197449"
     x2="305.7457"
     y2="313.90167" /></defs><sodipodi:namedview
   pagecolor="#ffffff"
   bordercolor="#666666"
   borderopacity="1"
   objecttolerance="10"
   gridtolerance="10"
   guidetolerance="10"
   inkscape:pageopacity="0"
   inkscape:pageshadow="2"
   inkscape:window-width="1920"
   inkscape:window-height="1030"
   id="namedview39"
   showgrid="false"
   inkscape:zoom="21.057806"
   inkscape:cx="7.2626572"
   inkscape:cy="11.048423"
   inkscape:window-x="0"
   inkscape:window-y="0"
   inkscape:window-maximized="1"
   inkscape:current-layer="Layer_1" />
<g
   id="g6"
   transform="translate(5.1382485,3.1471994)">
	<g
   id="start-here-kde"
   transform="matrix(0.03937008,0,0,0.03937008,-5.1382643,-3.5430262)">
		<path
   d="M 494.452,29.69 C 482.91,16.845 469.077,10.054 454.453,10.054 c -13.492,0 -25.852,6.539 -34.636,17.758 -8.758,-11.219 -21.028,-17.758 -34.403,-17.758 -14.632,0 -28.07,6.593 -39.954,19.582 -4.833,5.291 -8.461,11.92 -10.662,19.204 -38.786,2.955 -73.405,27.576 -94.504,66.677 C 217.81,73.722 180.2,48.499 138.648,48.499 c -38.086,0 -73.441,17.543 -105.077,52.152 -50.49,55.206 -38.903,137.09 0.898,186.467 -3.404,2.74 -6.737,5.812 -9.962,9.342 -20.103,21.98 -23.372,63.138 6.422,91.307 13.788,13.043 76.459,78.956 77.087,79.612 1.698,1.788 4.042,2.794 6.494,2.803 h 0.018 c 2.452,0 4.797,-1.006 6.494,-2.785 0.377,-0.395 22.833,-23.893 43.825,-45.64 37.636,39.262 69.3,72.569 69.309,72.569 1.698,1.788 4.042,2.794 6.494,2.803 h 0.018 c 2.452,0 4.797,-1.006 6.494,-2.785 1.518,-1.59 152.81,-159.933 185.883,-191.946 55.332,-53.571 56.688,-124.183 33.352,-173.02 9.908,-10.24 18.845,-19.393 22.762,-23.193 24.461,-23.669 21.793,-58.135 5.293,-76.495 z m -73.899,259.799 c -29.759,28.807 -150.043,154.453 -179.874,185.64 -11.219,-11.785 -35.696,-37.475 -63.326,-66.291 0.09,-0.09 0.189,-0.189 0.278,-0.278 2.066,-2.129 3.925,-4.042 5.713,-5.875 0.566,-0.575 1.15,-1.177 1.698,-1.734 1.635,-1.68 3.126,-3.189 4.509,-4.599 0.305,-0.314 0.656,-0.674 0.961,-0.97 3.404,-3.458 5.991,-6.045 7.698,-7.689 5.246,-5.084 9.288,-10.447 12.477,-15.935 13.303,-22.869 10.105,-47.948 1.051,-64.835 -1.284,-2.389 -2.65,-4.671 -4.141,-6.71 -0.961,-1.311 -1.967,-2.551 -2.991,-3.701 -13.788,-15.342 -30.262,-23.453 -47.634,-23.453 -16.779,0 -32.094,8.587 -42.595,23.211 -10.447,-14.623 -25.654,-23.211 -42.289,-23.211 -1.985,0 -3.961,0.126 -5.937,0.341 -1.195,0.126 -2.38,0.359 -3.566,0.566 -0.692,0.117 -1.383,0.207 -2.075,0.359 -1.563,0.332 -3.108,0.763 -4.644,1.231 -0.251,0.081 -0.512,0.153 -0.772,0.234 -1.752,0.557 -3.485,1.222 -5.21,1.967 0,0 0,0 -0.009,0 -50.796,-59.203 -32.472,-132.824 -3.054,-164.99 28.097,-30.72 58.997,-46.305 91.828,-46.305 39.693,0 75.426,28.241 93.274,73.692 1.347,3.44 4.671,5.704 8.363,5.704 3.692,0 7.015,-2.264 8.363,-5.704 16.294,-41.517 47.859,-68.707 83.851,-73.054 0.225,5.273 1.213,10.608 3.036,15.854 0.063,0.171 0.135,0.341 0.198,0.512 0.539,1.5 1.132,2.991 1.814,4.473 0.135,0.305 0.296,0.593 0.44,0.898 0.647,1.329 1.311,2.65 2.075,3.952 0.251,0.431 0.548,0.853 0.817,1.284 0.701,1.132 1.401,2.273 2.201,3.377 0.494,0.683 1.051,1.338 1.572,2.003 0.656,0.835 1.276,1.671 1.985,2.488 1.293,1.482 2.668,2.928 4.141,4.312 11.192,10.59 62.132,64.162 62.644,64.701 1.698,1.787 4.042,2.794 6.494,2.803 h 0.018 c 2.452,0 4.797,-1.006 6.494,-2.785 0.009,0 12.531,-13.114 26.588,-27.72 17.532,42.535 14.101,101.154 -32.464,146.237 z"
   id="path2"
   style="fill:url(#linearGradient841);fill-opacity:1"
   inkscape:connector-curvature="0" />
	</g>
</g>
<g
   id="g8"
   transform="translate(265.17703,261.33911)">
</g>
<g
   id="g10"
   transform="translate(265.17703,261.33911)">
</g>
<g
   id="g12"
   transform="translate(265.17703,261.33911)">
</g>
<g
   id="g14"
   transform="translate(265.17703,261.33911)">
</g>
<g
   id="g16"
   transform="translate(265.17703,261.33911)">
</g>
<g
   id="g18"
   transform="translate(265.17703,261.33911)">
</g>
<g
   id="g20"
   transform="translate(265.17703,261.33911)">
</g>
<g
   id="g22"
   transform="translate(265.17703,261.33911)">
</g>
<g
   id="g24"
   transform="translate(265.17703,261.33911)">
</g>
<g
   id="g26"
   transform="translate(265.17703,261.33911)">
</g>
<g
   id="g28"
   transform="translate(265.17703,261.33911)">
</g>
<g
   id="g30"
   transform="translate(265.17703,261.33911)">
</g>
<g
   id="g32"
   transform="translate(265.17703,261.33911)">
</g>
<g
   id="g34"
   transform="translate(265.17703,261.33911)">
</g>
<g
   id="g36"
   transform="translate(265.17703,261.33911)">
</g>
</svg>