<?xml version="1.0" encoding="UTF-8" standalone="no"?>
<!-- Generator: Adobe Illustrator 16.0.0, SVG Export Plug-In . SVG Version: 6.00 Build 0)  -->

<svg
   xmlns:dc="http://purl.org/dc/elements/1.1/"
   xmlns:cc="http://creativecommons.org/ns#"
   xmlns:rdf="http://www.w3.org/1999/02/22-rdf-syntax-ns#"
   xmlns:svg="http://www.w3.org/2000/svg"
   xmlns="http://www.w3.org/2000/svg"
   xmlns:sodipodi="http://sodipodi.sourceforge.net/DTD/sodipodi-0.dtd"
   xmlns:inkscape="http://www.inkscape.org/namespaces/inkscape"
   version="1.1"
   id="Capa_1"
   x="0px"
   y="0px"
   width="21.612749"
   height="19.19248"
   viewBox="0 0 21.612749 19.19248"
   xml:space="preserve"
   sodipodi:docname="start.svg"
   inkscape:version="0.92.4 (5da689c313, 2019-01-14)"><metadata
   id="metadata43"><rdf:RDF><cc:Work
       rdf:about=""><dc:format>image/svg+xml</dc:format><dc:type
         rdf:resource="http://purl.org/dc/dcmitype/StillImage" /><dc:title /></cc:Work></rdf:RDF></metadata><defs
   id="defs41" /><sodipodi:namedview
   pagecolor="#ffffff"
   bordercolor="#666666"
   borderopacity="1"
   objecttolerance="10"
   gridtolerance="10"
   guidetolerance="10"
   inkscape:pageopacity="0"
   inkscape:pageshadow="2"
   inkscape:window-width="1280"
   inkscape:window-height="977"
   id="namedview39"
   showgrid="false"
   inkscape:zoom="13.756847"
   inkscape:cx="7.6436495"
   inkscape:cy="13.545624"
   inkscape:window-x="0"
   inkscape:window-y="0"
   inkscape:window-maximized="1"
   inkscape:current-layer="Capa_1" />
<g
   id="g6"
   transform="translate(-260.03878,-258.19191)">
	<g
   id="start-here-kde"
   transform="matrix(0.03937008,0,0,0.03937008,-5.1382643,-3.5430262)">
		<path
   d="m 7133.8238,6648.0672 c -50.875,0 -95.875,31.151 -123.452,69.542 -27.577,-38.391 -72.577,-69.542 -123.453,-69.542 -43.452,0 -85.484,19.04 -114.168,51.677 -55.221,62.834 -43.085,166.366 -2.375,233.454 37.014,60.992 93.832,109.188 151.972,149.303 28.091,19.383 57.387,37.902 88.024,53.055 99.891,-47.723 210.791,-127.301 255.975,-231.268 14.211,-32.706 20.074,-69.187 17.54,-104.126 -5.802,-80.081 -55.673,-152.095 -150.063,-152.095 z m 76.397,231.826 c -29.517,67.915 -101.28,134.971 -198.998,186.739 -16.542,-9.498 -34.248,-20.795 -54.119,-34.504 -64.682,-44.627 -107.394,-86.15 -134.407,-130.674 -15.6,-25.704 -25.049,-57.908 -25.931,-88.342 -0.612,-21.188 2.699,-51.047 21.958,-72.963 16.996,-19.333 42.491,-30.881 68.202,-30.881 31.046,0 58.452,22.754 73.752,44.045 11.5,16.004 30,43.856 49.707,43.856 19.707,0 38.208,-27.852 49.707,-43.856 15.294,-21.291 42.699,-44.045 73.752,-44.045 26.77,0 47.24,8.36 62.577,25.557 15.013,16.824 24.4,41.598 26.438,69.756 1.841,25.569 -2.644,52.313 -12.638,75.312 z"
   id="path2"
   style="fill:#8a496b;fill-opacity:1"
   inkscape:connector-curvature="0" />
	</g>
</g>
<g
   id="g8"
   transform="translate(-260.03878,-258.19191)">
</g>
<g
   id="g10"
   transform="translate(-260.03878,-258.19191)">
</g>
<g
   id="g12"
   transform="translate(-260.03878,-258.19191)">
</g>
<g
   id="g14"
   transform="translate(-260.03878,-258.19191)">
</g>
<g
   id="g16"
   transform="translate(-260.03878,-258.19191)">
</g>
<g
   id="g18"
   transform="translate(-260.03878,-258.19191)">
</g>
<g
   id="g20"
   transform="translate(-260.03878,-258.19191)">
</g>
<g
   id="g22"
   transform="translate(-260.03878,-258.19191)">
</g>
<g
   id="g24"
   transform="translate(-260.03878,-258.19191)">
</g>
<g
   id="g26"
   transform="translate(-260.03878,-258.19191)">
</g>
<g
   id="g28"
   transform="translate(-260.03878,-258.19191)">
</g>
<g
   id="g30"
   transform="translate(-260.03878,-258.19191)">
</g>
<g
   id="g32"
   transform="translate(-260.03878,-258.19191)">
</g>
<g
   id="g34"
   transform="translate(-260.03878,-258.19191)">
</g>
<g
   id="g36"
   transform="translate(-260.03878,-258.19191)">
</g>
</svg>