<?xml version="1.0" encoding="UTF-8" standalone="no"?>
<!-- Created with Inkscape (http://www.inkscape.org/) -->

<svg
   xmlns:dc="http://purl.org/dc/elements/1.1/"
   xmlns:cc="http://creativecommons.org/ns#"
   xmlns:rdf="http://www.w3.org/1999/02/22-rdf-syntax-ns#"
   xmlns:svg="http://www.w3.org/2000/svg"
   xmlns="http://www.w3.org/2000/svg"
   xmlns:xlink="http://www.w3.org/1999/xlink"
   xmlns:sodipodi="http://sodipodi.sourceforge.net/DTD/sodipodi-0.dtd"
   xmlns:inkscape="http://www.inkscape.org/namespaces/inkscape"
   width="30.00001"
   height="30.000027"
   id="svg5048"
   version="1.1"
   inkscape:version="0.92.4 (5da689c313, 2019-01-14)"
   sodipodi:docname="system.svg">
  <defs
     id="defs5050">
    <style
       id="current-color-scheme"
       type="text/css">
      .ColorScheme-Text {
        color:#31363b;
      }
      .ColorScheme-Background {
        color:#eff0f1;
      }
      .ColorScheme-Highlight {
        color:#3daee9;
      }
      .ColorScheme-ViewText {
        color:#31363b;
      }
      .ColorScheme-ViewBackground {
        color:#fcfcfc;
      }
      .ColorScheme-ViewHover {
        color:#93cee9;
      }
      .ColorScheme-ViewFocus{
        color:#3daee9;
      }
      .ColorScheme-ButtonText {
        color:#31363b;
      }
      .ColorScheme-ButtonBackground {
        color:#eff0f1;
      }
      .ColorScheme-ButtonHover {
        color:#93cee9;
      }
      .ColorScheme-ButtonFocus{
        color:#3daee9;
      }
      </style>
    <linearGradient
       gradientTransform="translate(62.898336,-0.78997534)"
       inkscape:collect="always"
       xlink:href="#linearGradient820"
       id="linearGradient822"
       x1="8.5594692"
       y1="8.6955433"
       x2="23.673157"
       y2="23.211405"
       gradientUnits="userSpaceOnUse" />
    <linearGradient
       inkscape:collect="always"
       id="linearGradient820">
      <stop
         style="stop-color:#ffff00;stop-opacity:1"
         offset="0"
         id="stop816" />
      <stop
         id="stop817"
         offset="0.49622005"
         style="stop-color:#00ffff;stop-opacity:1" />
      <stop
         style="stop-color:#ff00ff;stop-opacity:1"
         offset="1"
         id="stop818" />
    </linearGradient>
    <linearGradient
       gradientTransform="translate(31.529,-0.41497374)"
       inkscape:collect="always"
       xlink:href="#linearGradient820-5"
       id="linearGradient822-7"
       x1="7.8162007"
       y1="8.4333935"
       x2="23.986408"
       y2="24.290363"
       gradientUnits="userSpaceOnUse" />
    <linearGradient
       inkscape:collect="always"
       id="linearGradient820-5">
      <stop
         style="stop-color:#ff00ff;stop-opacity:1"
         offset="0"
         id="stop816-3" />
      <stop
         id="stop817-5"
         offset="0.48267454"
         style="stop-color:#00ffff;stop-opacity:1" />
      <stop
         style="stop-color:#ffff00;stop-opacity:1"
         offset="1"
         id="stop818-6" />
    </linearGradient>
    <linearGradient
       inkscape:collect="always"
       xlink:href="#linearGradient820-1"
       id="linearGradient822-9"
       x1="9.5288982"
       y1="10.615335"
       x2="24.153811"
       y2="24.798161"
       gradientUnits="userSpaceOnUse"
       gradientTransform="translate(95.603,-2.0023064)" />
    <linearGradient
       inkscape:collect="always"
       id="linearGradient820-1">
      <stop
         style="stop-color:#ff00ff;stop-opacity:1"
         offset="0"
         id="stop816-2" />
      <stop
         id="stop817-7"
         offset="0.51028454"
         style="stop-color:#00ffff;stop-opacity:1" />
      <stop
         style="stop-color:#ffff00;stop-opacity:1"
         offset="1"
         id="stop818-0" />
    </linearGradient>
    <linearGradient
       gradientTransform="translate(126.00345,-1.0019763)"
       inkscape:collect="always"
       xlink:href="#linearGradient820-62"
       id="linearGradient822-0"
       x1="8.5399628"
       y1="8.2360058"
       x2="23.723223"
       y2="23.435013"
       gradientUnits="userSpaceOnUse" />
    <linearGradient
       inkscape:collect="always"
       id="linearGradient820-62">
      <stop
         style="stop-color:#ffff00;stop-opacity:1"
         offset="0"
         id="stop816-6" />
      <stop
         id="stop817-1"
         offset="0.47175738"
         style="stop-color:#00ffff;stop-opacity:1" />
      <stop
         style="stop-color:#e000ff;stop-opacity:1"
         offset="1"
         id="stop818-8" />
    </linearGradient>
    <linearGradient
       gradientTransform="matrix(1,0,0,0.9666659,223.103,-0.4686184)"
       inkscape:collect="always"
       xlink:href="#linearGradient820-7"
       id="linearGradient822-36"
       x1="9.0712461"
       y1="8.9746962"
       x2="24.557135"
       y2="24.141911"
       gradientUnits="userSpaceOnUse" />
    <linearGradient
       inkscape:collect="always"
       id="linearGradient820-7">
      <stop
         style="stop-color:#ffff00;stop-opacity:1"
         offset="0"
         id="stop816-5" />
      <stop
         id="stop817-3"
         offset="0.48342758"
         style="stop-color:#00ffff;stop-opacity:1" />
      <stop
         style="stop-color:#ff00ff;stop-opacity:1"
         offset="1"
         id="stop818-56" />
    </linearGradient>
    <linearGradient
       gradientTransform="translate(192.61022,-1.4447961)"
       inkscape:collect="always"
       xlink:href="#linearGradient820-70"
       id="linearGradient822-2"
       x1="10.21098"
       y1="7.9070215"
       x2="22.315393"
       y2="24.158773"
       gradientUnits="userSpaceOnUse" />
    <linearGradient
       inkscape:collect="always"
       id="linearGradient820-70">
      <stop
         style="stop-color:#ff00ff;stop-opacity:1"
         offset="0"
         id="stop816-9" />
      <stop
         id="stop817-36"
         offset="0.51483965"
         style="stop-color:#00ffff;stop-opacity:1" />
      <stop
         style="stop-color:#ffff00;stop-opacity:1"
         offset="1"
         id="stop818-06" />
    </linearGradient>
    <linearGradient
       gradientTransform="translate(158.253,-0.90202086)"
       inkscape:collect="always"
       xlink:href="#linearGradient820-18"
       id="linearGradient822-6"
       x1="7.4865675"
       y1="7.8986325"
       x2="24.938475"
       y2="24.239183"
       gradientUnits="userSpaceOnUse" />
    <linearGradient
       inkscape:collect="always"
       id="linearGradient820-18">
      <stop
         style="stop-color:#ff00ff;stop-opacity:1"
         offset="0"
         id="stop816-79" />
      <stop
         id="stop817-2"
         offset="0.5005728"
         style="stop-color:#00ffff;stop-opacity:1" />
      <stop
         style="stop-color:#ffff00;stop-opacity:1"
         offset="1"
         id="stop818-02" />
    </linearGradient>
    <linearGradient
       gradientTransform="translate(-0.95813757,-0.90226805)"
       inkscape:collect="always"
       xlink:href="#linearGradient820-6"
       id="linearGradient822-3"
       x1="8.6525202"
       y1="8.4163923"
       x2="23.719683"
       y2="23.350981"
       gradientUnits="userSpaceOnUse" />
    <linearGradient
       inkscape:collect="always"
       id="linearGradient820-6">
      <stop
         style="stop-color:#ffff00;stop-opacity:1"
         offset="0"
         id="stop816-7" />
      <stop
         id="stop817-53"
         offset="0.48328623"
         style="stop-color:#00ffff;stop-opacity:1" />
      <stop
         style="stop-color:#c000c0;stop-opacity:1"
         offset="1"
         id="stop818-5" />
    </linearGradient>
  </defs>
  <sodipodi:namedview
     id="base"
     pagecolor="#ffffff"
     bordercolor="#666666"
     borderopacity="1.0"
     inkscape:pageopacity="0.0"
     inkscape:pageshadow="2"
     inkscape:zoom="4"
     inkscape:cx="91.429845"
     inkscape:cy="-4.6918719"
     inkscape:document-units="px"
     inkscape:current-layer="svg5048"
     showgrid="false"
     inkscape:window-width="1920"
     inkscape:window-height="1028"
     inkscape:window-x="0"
     inkscape:window-y="0"
     inkscape:window-maximized="1"
     inkscape:snap-bbox="true"
     fit-margin-top="0"
     fit-margin-left="0"
     fit-margin-right="0"
     fit-margin-bottom="0"
     showguides="false">
    <inkscape:grid
       type="xygrid"
       id="grid3011"
       empspacing="4"
       visible="true"
       enabled="true"
       snapvisiblegridlinesonly="true"
       color="#0000ff"
       opacity="0.04705882"
       empcolor="#0000ff"
       empopacity="0.11372549"
       originx="-0.89700007"
       originy="9.802003" />
  </sodipodi:namedview>
  <metadata
     id="metadata5053">
    <rdf:RDF>
      <cc:Work
         rdf:about="">
        <dc:format>image/svg+xml</dc:format>
        <dc:type
           rdf:resource="http://purl.org/dc/dcmitype/StillImage" />
        <dc:title />
      </cc:Work>
    </rdf:RDF>
  </metadata>
  <g
     inkscape:label="Capa 1"
     id="22-22-system-switch-user"
     transform="matrix(1.499268,0,0,1.5,-636.57328,-911.98086)" />
  <path
     style="color:#eff0f1;fill:url(#linearGradient822);fill-opacity:1;stroke:none"
     d="m 77.898336,3.2100267 v 0.0508 1.0039 7.9453203 h 2 v -7.9492203 -1.00391 -0.0469 h -1 z m 3,0.16992 v 1.42108 c 4.9637,1.12956 8.48408,5.18295 8.6,10.4090003 -0.40514,6.19088 -4.98741,10.73215 -10.6,10.6 -5.75901,-0.1356 -10.294219,-4.52487 -10.6,-10.6 0.284754,-5.3014803 3.724358,-9.4471003 8.6,-10.4110003 v -1.40736 c -5.768598,0.97507 -9.993272,5.96794 -10,11.8183603 0,6.62741 5.372583,12 12,12 6.62742,0 12,-5.37259 12,-12 -0.001,-5.8548503 -4.22704,-10.8542703 -10,-11.8300803 z"
     class="ColorScheme-Text"
     id="path4"
     inkscape:connector-curvature="0"
     sodipodi:nodetypes="cccccccccccccsccccscc" />
  <rect
     ry="15.000005"
     y="0.09799993"
     x="63.903004"
     height="30.000027"
     width="30.00001"
     id="rect4130-3"
     style="opacity:0.25;fill:#c896b0;fill-opacity:1;stroke:none" />
  <path
     style="color:#eff0f1;fill:url(#linearGradient822-7);fill-opacity:1;stroke:none"
     id="path902-3"
     d="m 41.745059,3.5850263 c -3.854409,2.3471 -6.209497,6.5321507 -6.216059,11.0459407 0,7.15433 5.798203,12.95406 12.950639,12.95406 4.51527,-0.004 8.70207,-2.3616 11.04936,-6.21981 l -0.79045,-0.79065 c -1.80435,1.05104 -3.85353,1.40687 -5.94155,1.41246 -6.377588,0.17882 -11.181218,-4.62517 -11.671999,-11.67408 0.0033,-2.0896203 0.558052,-4.1412907 1.608,-5.9478207 z m -0.906384,1.81744 C 40.191452,6.9590768 39.654327,8.6270967 39.646,10.312947 c 0,7.30531 5.998081,13.35264 13.150519,13.15408 1.70769,-0.004 3.39759,-0.54726 4.97242,-1.20784 l -0.61794,0.13915 c -2.25306,2.60601 -5.22695,3.80424 -8.67136,3.80669 -6.073433,-0.19319 -11.079302,-5.17281 -11.471639,-11.574 0.0047,-3.44701 1.507748,-6.7217503 4.117,-8.9734407 z m 14.857004,1.9951195 h 1.83333 v 0.9375209 h -3.66667 l 1.83334,-2.8125604 h -1.83334 v -0.93752 h 3.66666 z m -2.18864,6.2499212 h 1.83333 v 0.93752 h -3.66667 l 1.83334,-2.81258 h -1.83333 v -0.93753 h 3.66666 z m -5.1447,-4.00001 h 1.83333 v 0.93753 H 46.529004 L 48.362339,7.7724567 H 46.529007 V 6.8349263 h 3.666662 z"
     class="ColorScheme-Text"
     inkscape:connector-curvature="0"
     sodipodi:nodetypes="ccccccccccccccccccccccccccccccccccccccccccccc" />
  <rect
     ry="15.000005"
     y="0.198"
     x="32.803001"
     height="30.000027"
     width="30.00001"
     id="rect4130-3-2"
     style="opacity:0.25;fill:#c896b0;fill-opacity:1;stroke:none" />
  <path
     style="color:#eff0f1;fill:url(#linearGradient822-9);fill-opacity:1;stroke:none"
     d="m 116.103,1.9976936 a 4.5,4.5 0 0 0 -4.5,4.5 4.5,4.5 0 0 0 4.5,4.5000004 4.5,4.5 0 0 0 4.5,-4.5000004 4.5,4.5 0 0 0 -4.5,-4.5 z m 0,1 a 3.5,3.5 0 0 1 3.5,3.5 3.5,3.5 0 0 1 -3.5,3.5000001 3.5,3.5 0 0 1 -3.5,-3.5000001 3.5,3.5 0 0 1 3.5,-3.5 z m -9,4 c -2.48528,0 -4.5,2.0147201 -4.5,4.5000004 0,2.48528 2.01472,4.5 4.5,4.5 2.48528,0 4.5,-2.01472 4.5,-4.5 0,-2.4852803 -2.01472,-4.5000004 -4.5,-4.5000004 z m 0,1 a 3.5,3.5 0 0 1 3.5,3.5000004 3.5,3.5 0 0 1 -3.5,3.5 3.5,3.5 0 0 1 -3.5,-3.5 3.5,3.5 0 0 1 3.5,-3.5000004 z m 9,4.0000004 c -0.88285,0.003 -1.75826,0.17228 -2.58593,0.5 -0.0662,0.42368 -0.17414,0.83977 -0.32227,1.24219 0.90271,-0.48731 1.89843,-0.74142 2.9082,-0.74219 3.58985,0 6.5,3.13401 6.5,7 h -8.34179 c 0.17032,0.32329 0.3255,0.65711 0.46484,1 h 8.87695 v -1 c 0,-4.41828 -3.35786,-8 -7.5,-8 z m -9,5 c -4.14213,0 -7.5,3.58172 -7.5,8 v 1 h 15 v -1 c 0,-4.41828 -3.35786,-8 -7.5,-8 z m 0,1 c 3.58985,0 6.5,3.13401 6.5,7 h -13 c 0,-3.86599 2.91015,-7 6.5,-7 z"
     class="ColorScheme-Text"
     id="path4-9"
     inkscape:connector-curvature="0" />
  <rect
     ry="15.000005"
     y="0.28600001"
     x="95.218513"
     height="30.000027"
     width="30.00001"
     id="rect4130-36"
     style="opacity:0.25;fill:#c896b0;fill-opacity:1;stroke:none" />
  <path
     style="color:#eff0f1;opacity:0.9;fill:url(#linearGradient822-0);fill-opacity:1;stroke:none"
     d="m 142.00345,2.9980237 c -3.30258,0 -6.29355,1.33414 -8.46338,3.492868 -2.18444,2.173282 -3.53662,5.1822923 -3.53662,8.5071323 0,6.62742 5.37258,12 12,12 6.62742,0 12,-5.37258 12,-12 0,-6.6274203 -5.37258,-12.0000003 -12,-12.0000003 z m 0,1.4 c 6.07513,0 10.6,4.52487 10.6,10.6000003 0,6.07513 -4.52487,10.6 -10.6,10.6 -6.07513,0 -10.6,-4.52487 -10.6,-10.6 0,-6.0751303 4.52487,-10.6000003 10.6,-10.6000003 z m 0,2.4 c -2.216,0 -4.31066,1.98677 -4.2,4.2000003 v 4 h -2 v 1 7.2 h 1.2 10 1.2 v -8.2 h -1.2 -0.8 v -4 c 0,-2.2160003 -1.984,-4.2000003 -4.2,-4.2000003 z m 0,1.4 c 1.662,0 2.68938,1.36416 2.8,3.3000003 v 3.5 h -5.6 v -3.5 c 0,-1.9390003 1.138,-3.3000003 2.8,-3.3000003 z m -4.8,8.1000003 h 9.6 v 5.5 h -9.6 z"
     class="ColorScheme-Text"
     id="path4-7"
     inkscape:connector-curvature="0"
     sodipodi:nodetypes="sssssssssssssccccccccccssssccssccccc" />
  <rect
     ry="15.000005"
     y="0.0094448328"
     x="126.992"
     height="30.000027"
     width="30.00001"
     id="rect4130-9"
     style="opacity:0.25;fill:#c896b0;fill-opacity:1;stroke:none" />
  <path
     style="color:#eff0f1;fill:url(#linearGradient822-36);fill-opacity:1;stroke:none;stroke-width:0.98319173"
     d="m 239.103,3.398045 c -2.14082,0.0048 -4.42753,0.6973913 -6.27008,1.7510673 l 5.56305,5.0646847 1.12576,-1.0920087 -4.1901,-3.717351 c 1.38789,-0.5917927 2.4871,-0.7383394 3.86442,-0.6980386 6.30776,0.1799059 10.50695,4.4190186 10.50695,10.2916393 -0.005,1.811878 -0.44108,3.277784 -1.35747,4.858355 l 1.0856,1.019049 c 1.08934,-1.780038 1.66656,-3.809229 1.67187,-5.877404 0,-6.4065027 -5.37258,-11.599993 -12,-11.599993 z m -10.42118,6.1685546 c -1.09001,1.7811384 -1.5742,3.3619784 -1.57882,5.4314384 0,6.406502 5.37258,11.599989 12,11.599989 2.14082,-0.005 4.24143,-0.56246 6.08398,-1.616149 l -5.37695,-5.199596 -1.07923,1.12157 3.95252,3.774397 c -1.3882,0.593339 -2.06248,0.657509 -3.58032,0.663116 -6.07513,0 -10.5,-4.470704 -10.5,-10.343327 0.005,-1.811881 0.24803,-2.73809 1.16442,-4.31866 z"
     class="ColorScheme-Text"
     id="path4-2"
     inkscape:connector-curvature="0"
     sodipodi:nodetypes="cccccccccccccccccccccc" />
  <rect
     ry="14.999991"
     y="-0.0019732972"
     x="223.90302"
     height="30"
     width="30.00001"
     id="rect4130-91"
     style="opacity:0.25;fill:#c896b0;fill-opacity:1;stroke:none;stroke-width:0.99999946" />
  <path
     style="color:#eff0f1;fill:url(#linearGradient822-2);fill-opacity:1;stroke:none"
     id="path1011"
     d="m 210.61022,6.5552038 c -1.28585,0 -2.41668,0.61776 -3.14844,1.5605499 0.32928,0.11214 0.64596,0.35129 0.94531,0.51845 0.54838,-0.5974 1.32828,-0.9789999 2.20313,-0.9789999 1.65685,0 2.9,1.2431499 2.9,2.9000002 0,1.39873 -0.86074,2.56427 -2.15586,2.89648 6.2e-4,0.0348 0.006,-0.13144 0.006,-0.0965 0,0.3181 -0.0324,0.8276 -0.082,1.13164 1.88946,-0.31918 3.33186,-1.95117 3.33186,-3.93162 0,-2.2091403 -1.79086,-4.0000002 -4,-4.0000002 z m -5,11.8000002 c -3.88106,0 -7,2.88962 -7,6.63555 0.003,0.52741 0.0691,1.25193 0.19803,1.76445 h 1.11174 11.66246 0.88477 c 0.129,-0.51252 0.14011,-1.23659 0.143,-1.764 0,-3.74593 -3.11894,-6.636 -7,-6.636 z m 0.027,1.192 c 3.81387,0 5.773,2.27436 5.773,5.444 -0.001,0.17426 -0.0114,0.34761 -0.029,0.521 h -11.542 c -0.0177,-0.17339 -0.0274,-0.3472 -0.029,-0.52145 0,-3.16964 1.97997,-5.44355 5.773,-5.44355 z m 6.2242,-3.99204 c -0.25686,0 -0.50903,0.0161 -0.75842,0.043 -0.12585,0.38369 -0.29144,0.75106 -0.49278,1.09766 0.41041,-0.0912 0.83003,0.0617 1.2512,0.0594 3.15383,0 5.6108,2.26241 5.6108,5.29999 -9e-4,0.16697 -0.01,0.13381 -0.027,0.30001 h -4.42997 c 0.10874,0.32119 0.2026,0.8488 0.26971,1.18633 l 5.13464,0.01365 c 0.12388,-0.49116 0.18785,-0.99457 0.19062,-1.50001 0,-3.58987 -3.02155,-6.50004 -6.7488,-6.50004 z m -6.2512,-5.9999603 c -2.20914,0 -4,1.7908603 -4,4.0000003 0,2.20914 1.79086,4 4,4 2.20914,0 4,-1.79086 4,-4 0,-2.20914 -1.79086,-4.0000003 -4,-4.0000003 z m 0,1.2000003 c 1.65685,0 2.8,1.14315 2.8,2.8 0,1.65685 -1.14315,2.8 -2.8,2.8 -1.65685,0 -2.8,-1.14315 -2.8,-2.8 0,-1.65685 1.14315,-2.8 2.8,-2.8 z m 3.027,-8.4000002 c -2.03474,0 -3.68421,1.64548 -3.68421,3.67529 v 0.61528 l -1.60679,-1.70257 -0.613,0.74295 2.233,2.2270497 0.644,0.6420002 0.582,-0.7426702 2.064,-2.2273297 -0.644,-0.64171 -1.707,1.70271 v -0.616 c 0,-1.44986 1.27862,-2.62492 2.732,-2.62492 1.45338,0 1.973,0.51905 1.973,1.96891 h 1 c 0,-2.10017 -1.11691,-2.97991 -2.973,-3.01899 z"
     class="ColorScheme-Text"
     inkscape:connector-curvature="0"
     sodipodi:nodetypes="sccsscscsssccccccssccccssccccccccccccssssssscsscscccccccccssccc" />
  <rect
     ry="15.000005"
     y="0.092999935"
     x="192.30399"
     height="30.000027"
     width="30.00001"
     id="rect4130-2"
     style="opacity:0.25;fill:#c896b0;fill-opacity:1;stroke:none" />
  <path
     style="color:#eff0f1;fill:url(#linearGradient822-6);fill-opacity:1;stroke:none"
     id="path891-3"
     d="m 168.04206,4.3423491 -0.86719,0.5 2.14613,3.7166296 -3.61488,-1.0689996 -0.25812,1.1669996 4.38,1.126781 3.069,5.1162203 h -5.93697 l -3.35351,-3.15333 -0.70704,0.70703 2.64649,2.64649 H 161.253 v 1 h 4.29297 l -2.64649,2.64648 0.70704,0.70703 3.35351,-3.1537 h 5.93697 l -3.069,5.11659 -4.37969,1.22657 0.25781,0.96679 3.61524,-0.96875 -2.14649,3.7168 0.86719,0.5 2.14649,-3.7168 0.96875,3.61524 0.96484,-0.25977 -1.02614,-4.58008 3.157,-5.41659 3.157,5.6162 -1.02614,4.38047 0.96484,0.25977 0.96875,-3.61524 2.14649,3.7168 0.86718,-0.5 -2.14648,-3.7168 3.61523,0.96875 0.25782,-0.96679 -4.58008,-1.42616 -2.86861,-4.917 h 5.93697 l 3.35351,3.1537 0.70704,-0.70703 -2.64649,-2.64648 h 4.29297 v -1 h -4.29297 l 2.00781,-2.00196 h -1.42773 l -1.99414,1.80177 H 175.309 l 1.154,-1.802 -1.36,2.3e-4 -0.95,1.49977 -3.057,-5.3140003 1.126,-4.5803006 -1.0647,-0.25976 -0.96875,3.61523 z m 15.54428,1.28695 h 1.66666 v 0.84377 h -3.33333 l 1.66667,-2.53132 h -1.66667 v -0.84377 h 3.33333 z m -1.98967,5.6249109 h 1.66666 v 0.84377 H 179.93 l 1.66667,-2.5313203 H 179.93 v -0.843771 h 3.33333 z m -4.677,-3.3748609 h 1.66666 V 8.7231287 H 175.253 l 1.66667,-2.5313196 H 175.253 v -0.84377 h 3.33333 z"
     class="ColorScheme-Text"
     inkscape:connector-curvature="0"
     sodipodi:nodetypes="cccccccccccccccccccccccccccccccccccccccccccccccccccccccccccccccccccccccccccccccccccccc" />
  <rect
     ry="15.000005"
     y="0.088000059"
     x="159.21573"
     height="30.000027"
     width="30.00001"
     id="rect4130-37"
     style="opacity:0.25;fill:#c896b0;fill-opacity:1;stroke:none" />
  <path
     style="color:#eff0f1;fill:url(#linearGradient822-3);fill-opacity:1;stroke:none"
     d="m 15.041862,3.0977319 c -6.6274166,0 -11.9999996,5.3725798 -11.9999996,12.0000001 0,6.62742 5.372583,12 11.9999996,12 6.627417,0 12,-5.37258 12,-12 0,-6.6274203 -5.372583,-12.0000001 -12,-12.0000001 z m 0,1.4 c 6.075132,0 10.6,4.5248698 10.6,10.6000001 0,6.07513 -4.524868,10.6 -10.6,10.6 -6.0751316,0 -10.5999996,-4.52487 -10.5999996,-10.6 0,-6.0751303 4.524868,-10.6000001 10.5999996,-10.6000001 z m 3.302626,2.40695 -8.5026261,8.1930501 8.4695311,8 0.870045,-0.96742 -7.378576,-7.03258 7.439,-7.29297 z"
     class="ColorScheme-Text"
     id="path4-6"
     inkscape:connector-curvature="0"
     sodipodi:nodetypes="ssssssssssccccccc" />
  <rect
     ry="15.000005"
     y="0"
     x="0"
     height="30.000027"
     width="30.00001"
     id="rect4130"
     style="opacity:0.25;fill:#c896b0;fill-opacity:1;stroke:none" />
</svg>
