<?xml version="1.0" encoding="UTF-8" standalone="no"?>
<!-- Created with Inkscape (http://www.inkscape.org/) -->

<svg
   xmlns:dc="http://purl.org/dc/elements/1.1/"
   xmlns:cc="http://creativecommons.org/ns#"
   xmlns:rdf="http://www.w3.org/1999/02/22-rdf-syntax-ns#"
   xmlns:svg="http://www.w3.org/2000/svg"
   xmlns="http://www.w3.org/2000/svg"
   xmlns:xlink="http://www.w3.org/1999/xlink"
   xmlns:sodipodi="http://sodipodi.sourceforge.net/DTD/sodipodi-0.dtd"
   xmlns:inkscape="http://www.inkscape.org/namespaces/inkscape"
   width="31.999996"
   height="32"
   id="svg5048"
   version="1.1"
   inkscape:version="0.92.4 (5da689c313, 2019-01-14)"
   sodipodi:docname="system.svg">
  <defs
     id="defs5050">
    <style
       id="current-color-scheme"
       type="text/css">
      .ColorScheme-Text {
        color:#31363b;
      }
      .ColorScheme-Background {
        color:#eff0f1;
      }
      .ColorScheme-Highlight {
        color:#3daee9;
      }
      .ColorScheme-ViewText {
        color:#31363b;
      }
      .ColorScheme-ViewBackground {
        color:#fcfcfc;
      }
      .ColorScheme-ViewHover {
        color:#93cee9;
      }
      .ColorScheme-ViewFocus{
        color:#3daee9;
      }
      .ColorScheme-ButtonText {
        color:#31363b;
      }
      .ColorScheme-ButtonBackground {
        color:#eff0f1;
      }
      .ColorScheme-ButtonHover {
        color:#93cee9;
      }
      .ColorScheme-ButtonFocus{
        color:#3daee9;
      }
      </style>
    <linearGradient
       gradientUnits="userSpaceOnUse"
       y2="24"
       x2="24.000027"
       y1="8.9999743"
       x1="9"
       id="linearGradient4291"
       xlink:href="#linearGradient4227"
       inkscape:collect="always"
       gradientTransform="translate(320.99998,529.36219)" />
    <linearGradient
       inkscape:collect="always"
       id="linearGradient4227">
      <stop
         style="stop-color:#292c2f;stop-opacity:1"
         offset="0"
         id="stop4229" />
      <stop
         style="stop-color:#000000;stop-opacity:0;"
         offset="1"
         id="stop4231" />
    </linearGradient>
    <linearGradient
       gradientTransform="translate(448.99996,529.3622)"
       inkscape:collect="always"
       xlink:href="#linearGradient4227"
       id="linearGradient4203"
       x1="9.0000114"
       y1="9"
       x2="23"
       y2="22.999989"
       gradientUnits="userSpaceOnUse" />
    <linearGradient
       gradientUnits="userSpaceOnUse"
       y2="24.999973"
       x2="25"
       y1="8.9999743"
       x1="9"
       id="linearGradient4258"
       xlink:href="#linearGradient4227"
       inkscape:collect="always"
       gradientTransform="translate(544.99998,529.36219)" />
    <linearGradient
       gradientUnits="userSpaceOnUse"
       y2="24"
       x2="25.000011"
       y1="8"
       x1="9.0000114"
       id="linearGradient4231"
       xlink:href="#linearGradient4227"
       inkscape:collect="always"
       gradientTransform="translate(384.99998,529.36219)" />
    <linearGradient
       gradientUnits="userSpaceOnUse"
       y2="23.000006"
       x2="23.000042"
       y1="8.9999743"
       x1="9.0000114"
       id="linearGradient4289"
       xlink:href="#linearGradient4227"
       inkscape:collect="always"
       gradientTransform="translate(480.99998,529.36219)" />
    <linearGradient
       gradientUnits="userSpaceOnUse"
       y2="24"
       x2="24.000027"
       y1="8.9999743"
       x1="9"
       id="linearGradient4291-6"
       xlink:href="#linearGradient4227"
       inkscape:collect="always"
       gradientTransform="translate(352.99998,529.36219)" />
    <linearGradient
       gradientUnits="userSpaceOnUse"
       y2="22.999973"
       x2="22.999985"
       y1="9"
       x1="9.0000114"
       id="linearGradient4309"
       xlink:href="#linearGradient4227"
       inkscape:collect="always"
       gradientTransform="translate(512.99998,529.36219)" />
    <linearGradient
       inkscape:collect="always"
       xlink:href="#linearGradient4227"
       id="linearGradient4512"
       gradientUnits="userSpaceOnUse"
       x1="9.0000114"
       y1="9"
       x2="22.999985"
       y2="22.999973"
       gradientTransform="translate(416.99998,529.36219)" />
  </defs>
  <sodipodi:namedview
     id="base"
     pagecolor="#ffffff"
     bordercolor="#666666"
     borderopacity="1.0"
     inkscape:pageopacity="0.0"
     inkscape:pageshadow="2"
     inkscape:zoom="22.627417"
     inkscape:cx="83.486185"
     inkscape:cy="43.199061"
     inkscape:document-units="px"
     inkscape:current-layer="svg5048"
     showgrid="false"
     inkscape:window-width="1280"
     inkscape:window-height="977"
     inkscape:window-x="0"
     inkscape:window-y="0"
     inkscape:window-maximized="1"
     inkscape:snap-bbox="true"
     fit-margin-top="0"
     fit-margin-left="0"
     fit-margin-right="0"
     fit-margin-bottom="0">
    <inkscape:grid
       type="xygrid"
       id="grid3011"
       empspacing="4"
       visible="true"
       enabled="true"
       snapvisiblegridlinesonly="true"
       color="#0000ff"
       opacity="0.04705882"
       empcolor="#0000ff"
       empopacity="0.11372549"
       originx="0"
       originy="10.000003" />
  </sodipodi:namedview>
  <metadata
     id="metadata5053">
    <rdf:RDF>
      <cc:Work
         rdf:about="">
        <dc:format>image/svg+xml</dc:format>
        <dc:type
           rdf:resource="http://purl.org/dc/dcmitype/StillImage" />
        <dc:title />
      </cc:Work>
    </rdf:RDF>
  </metadata>
  <g
     style="fill:currentColor"
     inkscape:label="Capa 1"
     id="22-22-system-log-out"
     transform="matrix(1.5,0,0,1.5,-873.58383,-910.17889)"
     class="ColorScheme-Text">
    <rect
       style="opacity:0.4;fill:#ed1515;fill-opacity:0.00392157;stroke:none"
       id="rect3010-1"
       width="14.666638"
       height="14.666644"
       x="582.38922"
       y="586.78595" />
    <path
       class="ColorScheme-Text"
       inkscape:connector-curvature="0"
       style="fill:#8a496b;fill-opacity:1;stroke:none"
       d="m 589.72253,588.7859 c -2.95468,0 -5.33336,2.37868 -5.33336,5.33336 0,2.95468 2.37868,5.33336 5.33336,5.33336 2.95468,0 5.33336,-2.37868 5.33336,-5.33336 0,-2.95468 -2.37868,-5.33336 -5.33336,-5.33336 z m 0,0.66668 c 2.58535,0 4.66668,2.08133 4.66668,4.66668 0,2.58535 -2.08133,4.66668 -4.66668,4.66668 -2.58535,0 -4.66668,-2.08133 -4.66668,-4.66668 0,-2.58535 2.08133,-4.66668 4.66668,-4.66668 z m 0.86199,2.00001 -2.19533,2.19532 -0.47135,0.47135 0.47135,0.47135 2.19533,2.19532 0.47135,-0.47135 -2.19532,-2.19532 2.19532,-2.19532 -0.47135,-0.47135 z"
       id="rect4149-7" />
  </g>
  <g
     style="fill:currentColor"
     inkscape:label="Capa 1"
     id="22-22-system-reboot"
     transform="matrix(1.5,0,0,1.5,234.5,-1581.0433)"
     class="ColorScheme-Text">
    <rect
       style="opacity:0.4;fill:#ed1515;fill-opacity:0.00392157;stroke:none"
       id="rect3010"
       width="22"
       height="22"
       x="1"
       y="1"
       transform="matrix(0.66666667,0,0,0.66666667,3,1033.3622)" />
    <path
       inkscape:connector-curvature="0"
       style="fill:#ff812d;fill-opacity:1;stroke:none"
       d="m 11,1036.0289 c -0.961143,0 -1.8686407,0.2461 -2.6458333,0.6875 l 0.4791666,0.4583 0.041667,0.042 1.8333337,1.8541 0.479166,-0.4791 -1.6666664,-1.6459 c 0.4655547,-0.1564 0.9594294,-0.25 1.4791664,-0.25 2.585313,0 4.666667,2.0814 4.666667,4.6667 0,0.775 -0.18925,1.5039 -0.520834,2.1458 l 0.5,0.5 c 0.441368,-0.7772 0.6875,-1.6847 0.6875,-2.6458 0,-2.9547 -2.378689,-5.3333 -5.333333,-5.3333 z m -4.6458333,2.6875 c -0.4413674,0.7772 -0.6875,1.6847 -0.6875,2.6458 0,2.9547 2.3786893,5.3333 5.3333333,5.3333 0.961143,0 1.868641,-0.2461 2.645833,-0.6875 l -0.458333,-0.4583 -0.04167,-0.042 -1.854166,-1.8541 -0.458334,0.4791 1.645834,1.6459 c -0.465555,0.1564 -0.95943,0.25 -1.479167,0.25 -2.5853133,0 -4.6666667,-2.0814 -4.6666667,-4.6667 0,-0.775 0.1892507,-1.5039 0.5208334,-2.1458 l -0.5,-0.5 z"
       id="rect4085"
       class="ColorScheme-Text" />
  </g>
  <g
     style="fill:currentColor"
     inkscape:label="Capa 1"
     id="22-22-system-shutdown"
     transform="matrix(1.5,0,0,1.5,-766.08383,-910.17889)"
     class="ColorScheme-Text">
    <rect
       style="opacity:0.4;fill:#ed1515;fill-opacity:0.00392157;stroke:none"
       id="rect3010-8"
       width="14.666638"
       height="14.666644"
       x="557.38922"
       y="586.78595" />
    <path
       class="ColorScheme-Text"
       inkscape:connector-curvature="0"
       style="color:#31363b;fill:#8a496b;fill-opacity:1;stroke:none"
       d="m 564.05587,588.78595 v 4.66665 h 1.33332 v -4.66665 z m -0.66667,0.17709 c -2.30368,0.58972 -3.99998,2.66358 -3.99998,5.15622 0,2.95465 2.37866,5.33331 5.33331,5.33331 2.95465,0 5.33331,-2.37866 5.33331,-5.33331 0,-2.49264 -1.71803,-4.58823 -4.02171,-5.17795 l 0.0218,1.04662 c 1.93001,0.57145 3.06666,2.01109 3.06666,4.13133 0,2.58532 -1.88138,4.36667 -4.4667,4.36667 -2.58532,0 -4.31908,-1.78188 -4.26663,-4.36667 0.0435,-2.14197 1.1225,-3.45549 2.98731,-4.15733 z"
       id="rect4149-2"
       sodipodi:nodetypes="ccccccsssccssscc" />
  </g>
  <g
     class="ColorScheme-Text"
     style="fill:currentColor"
     inkscape:label="Capa 1"
     id="22-22-system-suspend-hibernate"
     transform="matrix(1.5,0,0,1.5,-799.58383,-910.17889)">
    <rect
       style="opacity:0.4;fill:#ed1515;fill-opacity:0.00392157;stroke:none"
       id="rect3010-9"
       width="14.666645"
       height="14.666644"
       x="642.38922"
       y="586.78595" />
    <path
       inkscape:connector-curvature="0"
       style="fill:#6600ff;fill-opacity:1"
       d="m 649.72253,588.78595 c -0.36933,0 -0.66666,0.29733 -0.66666,0.66667 0,0.36932 0.29733,0.66666 0.66666,0.66666 0.36933,0 0.66666,-0.29734 0.66666,-0.66666 0,-0.36934 -0.29733,-0.66667 -0.66666,-0.66667 z m -3.52863,1.33333 -0.47135,0.47135 0.86197,0.86198 0.47136,-0.47135 -0.86198,-0.86198 z m 7.05726,0 -0.86198,0.86198 0.47136,0.47135 0.86197,-0.86198 -0.47135,-0.47135 z m -3.52863,0.66666 c -1.84665,0 -3.33332,1.48667 -3.33332,3.33332 0,1.84665 1.48667,3.33332 3.33332,3.33332 1.84665,0 3.33332,-1.48667 3.33332,-3.33332 0,-1.84665 -1.48667,-3.33332 -3.33332,-3.33332 z m 0,0.66667 c 1.47733,0 2.66665,1.18932 2.66665,2.66665 0,1.47733 -1.18932,2.66665 -2.66665,2.66665 -1.47733,0 -2.66665,-1.18932 -2.66665,-2.66665 0,-1.47733 1.18932,-2.66665 2.66665,-2.66665 z m -4.66664,1.99999 c -0.36934,0 -0.66667,0.29733 -0.66667,0.66666 0,0.36933 0.29733,0.66666 0.66667,0.66666 0.36932,0 0.66666,-0.29733 0.66666,-0.66666 0,-0.36933 -0.29734,-0.66666 -0.66666,-0.66666 z m 9.33328,0 c -0.36932,0 -0.66666,0.29733 -0.66666,0.66666 0,0.36933 0.29734,0.66666 0.66666,0.66666 0.36934,0 0.66667,-0.29733 0.66667,-0.66666 0,-0.36933 -0.29733,-0.66666 -0.66667,-0.66666 z m -7.80464,3.33331 -0.86198,0.86198 0.47135,0.47135 0.86198,-0.86197 -0.47135,-0.47136 z m 6.27601,0 -0.47136,0.47136 0.86198,0.86197 0.47135,-0.47135 -0.86197,-0.86198 z m -3.13801,1.33333 c -0.36933,0 -0.66666,0.29734 -0.66666,0.66666 0,0.36934 0.29733,0.66667 0.66666,0.66667 0.36933,0 0.66666,-0.29733 0.66666,-0.66667 0,-0.36932 -0.29733,-0.66666 -0.66666,-0.66666 z"
       id="rect4148"
       class="ColorScheme-Text" />
  </g>
  <g
     style="fill:currentColor"
     inkscape:label="Capa 1"
     id="22-22-system-suspend"
     transform="matrix(1.5,0,0,1.5,-798.08383,-910.17889)"
     class="ColorScheme-Text">
    <rect
       style="opacity:0.4;fill:#ed1515;fill-opacity:0.00392157;stroke:none"
       id="rect3010-0"
       width="14.666638"
       height="14.666644"
       x="557.38922"
       y="586.78595" />
    <path
       class="ColorScheme-Text"
       inkscape:connector-curvature="0"
       style="fill:#00ff00;fill-opacity:1;stroke:none"
       d="m 564.72253,588.78595 c -2.95465,0 -5.33331,2.37866 -5.33331,5.33331 0,2.95465 2.37866,5.33331 5.33331,5.33331 2.95465,0 5.33331,-2.37866 5.33331,-5.33331 0,-2.95465 -2.37866,-5.33331 -5.33331,-5.33331 z m 0,0.66666 c 2.35814,0 4.29203,1.73376 4.61457,3.99999 l -9.22914,0 c 0.32254,-2.26623 2.25643,-3.99999 4.61457,-3.99999 z m -4.61457,5.33331 9.22914,0 c -0.32254,2.26623 -2.25643,3.99999 -4.61457,3.99999 -2.35814,0 -4.29203,-1.73376 -4.61457,-3.99999 z"
       id="rect4148-6" />
  </g>
  <g
     inkscape:label="Capa 1"
     id="22-22-system-switch-user"
     transform="matrix(1.499268,0,0,1.5,-635.67628,-910.17889)">
    <rect
       style="opacity:0.4;fill:#ed1515;fill-opacity:0.00392157;stroke:none"
       id="rect3010-99"
       width="14.673867"
       height="14.666705"
       x="557.38953"
       y="586.78589" />
    <path
       class="ColorScheme-Text"
       inkscape:connector-curvature="0"
       style="fill:#000080;fill-opacity:1;stroke:none"
       d="m 568.25769,588.78593 -2.19531,2.19531 -0.13803,0.13802 0.13803,0.13802 2.19531,2.19532 0.47135,-0.47136 -1.52865,-1.52864 2.86198,0 0,-0.66667 -2.86198,0 1.52865,-1.52865 -0.47135,-0.47135 z m -5.53386,2 c -1.108,0 -2,0.89199 -2,1.99999 0,1.108 0.892,2 2,2 1.108,0 2,-0.892 2,-2 0,-1.108 -0.892,-1.99999 -2,-1.99999 z m 0,4.66667 c -1.84668,0 -3.33333,1.48664 -3.33333,3.33332 l 0,0.66667 6.66667,0 0,-0.66667 c 0,-1.84668 -1.48666,-3.33332 -3.33334,-3.33332 z m 0,0.66666 c 1.47734,0 2.66667,1.18932 2.66667,2.66666 l -5.33333,0 c 0,-1.47734 1.18932,-2.66666 2.66666,-2.66666 z"
       id="rect4109-66" />
  </g>
  <g
     id="22-22-system-lock-screen"
     transform="translate(98,-31.000003)">
    <rect
       style="opacity:0.01000001;fill:#00000f;fill-opacity:0.00392157;stroke:none"
       id="rect3814-8"
       width="22"
       height="22"
       x="36"
       y="1" />
    <path
       inkscape:connector-curvature="0"
       style="fill:#8a496b;fill-opacity:1"
       d="m 47,4 c -2.216,0 -4,1.784 -4,4 l 0,4 -2,0 0,1 0,7 1,0 10,0 1,0 0,-8 -1,0 -1,0 0,-4 C 51,5.784 49.216,4 47,4 Z m 0,1 c 1.662,0 3,1.561 3,3.5 l 0,3.5 -6,0 0,-3.5 C 44,6.561 45.338,5 47,5 Z m -5,8 10,0 0,6 -10,0 0,-6 z"
       id="rect4136-4"
       class="ColorScheme-Text" />
  </g>
  <g
     transform="translate(-321,-529.36218)"
     id="system-log-out">
    <rect
       y="529.36218"
       x="321"
       height="32"
       width="31.999996"
       id="rect4145"
       style="opacity:1;fill:none;fill-opacity:0.23529412;stroke:none" />
    <rect
       ry="15.000005"
       y="530.36218"
       x="322"
       height="30.000027"
       width="30.00001"
       id="rect4130"
       style="opacity:0.5;fill:#c896b0;fill-opacity:1;stroke:none" />
    <path
       inkscape:connector-curvature="0"
       id="rect4253"
       d="m 341.88279,540.34461 c -0.19767,0.18581 -0.51415,0.49137 -0.73047,0.69531 a 5.9999881,6 0 0 1 1.84766,4.32227 5.9999881,6 0 0 1 -6,6 5.9999881,6 0 0 1 -4.43555,-1.96875 c -0.22607,0.23247 -0.50836,0.50944 -0.71093,0.72266 l 8.76171,8.76172 c 4.83476,-1.28222 8.61818,-5.06564 9.90039,-9.9004 z"
       style="opacity:0.3;fill:url(#linearGradient4291);fill-opacity:1;stroke:none" />
    <path
       id="path4269"
       d="m 336.99998,538.36219 a 7.000021,7.0000005 0 0 0 -7,7 7.000021,7.0000005 0 0 0 7,7 7.000021,7.0000005 0 0 0 7,-7 7.000021,7.0000005 0 0 0 -7,-7 z m -0.0137,1 a 6.000021,6.0000033 0 0 1 0.0137,0 5.9999881,6 0 0 1 1.19141,0.11914 5.9999881,6 0 0 1 2.19531,0.92969 5.9999881,6 0 0 1 0.002,0 5.9999881,6 0 0 1 0.91406,0.77148 5.9999881,6 0 0 1 0.39649,0.44922 6.000021,6.0000033 0 0 1 0,0.002 5.9999881,6 0 0 1 0.3496,0.48633 6.000021,6.0000033 0 0 1 0,0.002 5.9999881,6 0 0 1 0.54297,1.06641 6.000021,6.0000033 0 0 1 0,0.002 5.9999881,6 0 0 1 0.32222,1.17173 5.9999881,6 0 0 1 0.0859,1 5.9999881,6 0 0 1 -0.0898,1 5.9999881,6 0 0 1 0,0.004 5.9999881,6 0 0 1 -0.12305,0.55274 6.000021,6.0000033 0 0 1 -0.006,0.0293 5.9999881,6 0 0 1 -0.004,0.0137 5.9999881,6 0 0 1 -0.16406,0.5 6.000021,6.0000033 0 0 1 -0.0312,0.0859 5.9999881,6 0 0 1 -0.22461,0.50195 6.000021,6.0000033 0 0 1 -0.008,0.0156 5.9999881,6 0 0 1 -0.004,0.006 5.9999881,6 0 0 1 -0.25976,0.46094 6.000021,6.0000033 0 0 1 -0.0508,0.084 5.9999881,6 0 0 1 -0.28321,0.39648 6.000021,6.0000033 0 0 1 -0.0684,0.0918 5.9999881,6 0 0 1 -0.32031,0.36719 6.000021,6.0000033 0 0 1 -0.0781,0.082 5.9999881,6 0 0 1 -0.34375,0.32226 6.000021,6.0000033 0 0 1 -0.10156,0.0898 5.9999881,6 0 0 1 -0.35352,0.26953 6.000021,6.0000033 0 0 1 -0.13281,0.0957 5.9999881,6 0 0 1 -0.36328,0.2246 6.000021,6.0000033 0 0 1 -0.15235,0.0879 5.9999881,6 0 0 1 -0.3789,0.1836 6.000021,6.0000033 0 0 1 -0.16602,0.0742 5.9999881,6 0 0 1 -0.35156,0.13086 6.000021,6.0000033 0 0 1 -0.23242,0.0762 5.9999881,6 0 0 1 -0.32422,0.084 6.000021,6.0000033 0 0 1 -0.27149,0.0605 5.9999881,6 0 0 1 -0.2832,0.0449 6.000021,6.0000033 0 0 1 -0.32226,0.0391 5.9999881,6 0 0 1 -0.46094,0.0234 5.9999881,6 0 0 1 -0.0469,0.002 5.9999881,6 0 0 1 -1.19141,-0.11914 5.9999881,6 0 0 1 -1.14453,-0.35547 5.9999881,6 0 0 1 -1.05078,-0.57422 6.000021,6.0000033 0 0 1 -0.002,0 5.9999881,6 0 0 1 -0.91406,-0.77148 5.9999881,6 0 0 1 -0.39649,-0.44922 5.9999881,6 0 0 1 0,-0.002 6.000021,6.0000033 0 0 1 -0.34961,-0.48633 5.9999881,6 0 0 1 0,-0.002 5.9999881,6 0 0 1 -0.54296,-1.0664 5.9999881,6 0 0 1 0,-0.002 5.9999881,6 0 0 1 -0.32222,-1.17174 5.9999881,6 0 0 1 -0.0859,-1 5.9999881,6 0 0 1 0.0898,-1 6.000021,6.0000033 0 0 1 0,-0.004 5.9999881,6 0 0 1 0.12305,-0.55273 6.000021,6.0000033 0 0 1 0.01,-0.043 5.9999881,6 0 0 1 0.16406,-0.5 6.000021,6.0000033 0 0 1 0.0312,-0.086 5.9999881,6 0 0 1 0.22461,-0.50195 6.000021,6.0000033 0 0 1 0.0117,-0.0215 5.9999881,6 0 0 1 0.25976,-0.46094 6.000021,6.0000033 0 0 1 0.0508,-0.084 5.9999881,6 0 0 1 0.28321,-0.39648 6.000021,6.0000033 0 0 1 0.0684,-0.0918 5.9999881,6 0 0 1 0.32031,-0.36719 6.000021,6.0000033 0 0 1 0.0781,-0.082 5.9999881,6 0 0 1 0.34375,-0.32226 6.000021,6.0000033 0 0 1 0.10156,-0.0898 5.9999881,6 0 0 1 0.35352,-0.26953 6.000021,6.0000033 0 0 1 0.13281,-0.0957 5.9999881,6 0 0 1 0.36328,-0.22461 6.000021,6.0000033 0 0 1 0.15234,-0.0879 5.9999881,6 0 0 1 0.37891,-0.1836 6.000021,6.0000033 0 0 1 0.16602,-0.0742 5.9999881,6 0 0 1 0.35156,-0.13086 6.000021,6.0000033 0 0 1 0.23242,-0.0762 5.9999881,6 0 0 1 0.32422,-0.084 6.000021,6.0000033 0 0 1 0.27148,-0.0606 5.9999881,6 0 0 1 0.28321,-0.0449 6.000021,6.0000033 0 0 1 0.32226,-0.0391 5.9999881,6 0 0 1 0.46094,-0.0234 6.000021,6.0000033 0 0 1 0.0332,-0.002 z m 1.30664,2 -3.29297,3.29297 -0.70703,0.70703 0.70703,0.70703 3.29297,3.29297 0.70703,-0.70703 -3.29297,-3.29297 3.29297,-3.29297 -0.70703,-0.70703 z"
       style="opacity:1;fill:#412333;fill-opacity:1;stroke:none"
       inkscape:connector-curvature="0" />
  </g>
  <g
     transform="translate(-321,-529.36218)"
     id="system-lock-screen">
    <rect
       ry="0"
       y="529.36218"
       x="449"
       height="31.999992"
       width="31.999998"
       id="rect4536"
       style="opacity:1;fill:none;fill-opacity:1;stroke:none" />
    <rect
       ry="15.000005"
       y="530.36218"
       x="450"
       height="30.000027"
       width="30.00001"
       id="rect4130-5"
       style="opacity:0.2;fill:#ffff00;fill-opacity:1;stroke:none" />
    <path
       id="path4191"
       d="m 463.99996,539.3622 -1,1 0,4 -3,0 0,5 0,0.22656 0,1.77344 7.73047,7.73047 c 2.94825,-0.57879 5.5496,-2.08206 7.51367,-4.19141 0.031,-0.0347 0.0623,-0.0691 0.0937,-0.10351 0.28206,-0.30972 0.55125,-0.63045 0.80469,-0.96485 5.5e-4,-7.2e-4 10e-4,-10e-4 0.002,-0.002 0.0574,-0.0755 0.11404,-0.15177 0.16992,-0.22851 0.27549,-0.37955 0.53467,-0.77239 0.77148,-1.17969 0.0117,-0.02 0.025,-0.0389 0.0371,-0.0586 0.006,-0.0104 0.0116,-0.0209 0.0176,-0.0312 0.35083,-0.61406 0.63838,-1.26705 0.89454,-1.93555 l -11.03521,-11.03511 -2,0 -1,0 z"
       style="opacity:0.3;fill:url(#linearGradient4203);fill-opacity:1;fill-rule:evenodd;stroke:none;stroke-width:1px;stroke-linecap:butt;stroke-linejoin:miter;stroke-opacity:1"
       inkscape:connector-curvature="0" />
    <path
       sodipodi:nodetypes="sscccccccccssssccccssccccc"
       id="rect4136-1"
       d="m 464.99996,538.3622 c -1.662,0 -3,1.338 -3,3 l 0,1 0,2 -1,0 -1,0 0,0.75 0,6.25 10,0 0,-7 -2,0 0,-3 c 0,-1.662 -1.338,-3 -3,-3 z m 0,1 c 1.2465,0 2,0.5458 2,2 l 0,3 -3,0 -1,0 0,-2 0,-1 c 0,-1.4542 0.75351,-2 2,-2 z m -4,6 8,0 0,5 -8,0 z"
       style="fill:#8a496b;fill-opacity:1;stroke:none"
       inkscape:connector-curvature="0" />
  </g>
  <g
     transform="translate(-321,-529.36218)"
     id="system-reboot">
    <rect
       ry="0"
       y="529.36218"
       x="545"
       height="31.999992"
       width="31.999998"
       id="rect4542"
       style="opacity:1;fill:none;fill-opacity:1;stroke:none" />
    <rect
       ry="15.000005"
       y="530.36218"
       x="546"
       height="30.000027"
       width="30.00001"
       id="rect4130-4"
       style="opacity:0.8;fill:#ffccaa;fill-opacity:1;stroke:none" />
    <path
       id="rect4247"
       d="m 560.99998,539.36219 c -0.84973,0.003 -1.68922,0.18569 -2.46289,0.53711 l 7.92773,7.92773 c 0.35102,-0.77441 0.53344,-1.61459 0.53516,-2.46484 0,-3.31371 -2.68629,-6 -6,-6 z m 4.94922,1.05078 -0.002,0.002 a 7.0000119,6.9999738 0 0 1 0.0742,0.0703 l -0.0723,-0.0723 z m 0.0723,0.0723 a 7.0000119,6.9999738 0 0 1 1.75781,3.16211 l -0.002,-0.002 c 0.068,0.26308 0.11737,0.53014 0.1543,0.79883 l 0,0.002 a 7.0000119,6.9999738 0 0 1 0.0137,0.11914 c 0.0317,0.26437 0.0534,0.5301 0.0547,0.79687 -2.3e-4,0.25943 -0.018,0.51696 -0.0469,0.77344 -3.6e-4,0.003 3.7e-4,0.006 0,0.01 a 7.0000119,6.9999738 0 0 1 -0.13281,0.76953 c -6e-4,0.003 -10e-4,0.005 -0.002,0.008 a 7.0000119,6.9999738 0 0 1 -0.61133,1.64648 l 5.07031,5.07032 c 1.01343,-1.3817 1.78529,-2.95405 2.23828,-4.66211 l -8.4941,-8.49221 z m -11.28321,1.76758 a 7.000021,6.9999866 0 0 0 -0.2539,0.57226 c 0.0758,-0.19422 0.16067,-0.38484 0.2539,-0.57226 z m 0.79688,0.64453 c -0.35102,0.77441 -0.53343,1.61459 -0.53516,2.46484 0,3.31371 2.68629,6 6,6 0.84974,-0.003 1.68922,-0.18569 2.46289,-0.53711 l -7.92773,-7.92773 z m -1.12696,0.13672 a 7.000021,6.9999866 0 0 0 -0.16797,0.53906 c 0.0483,-0.18175 0.10514,-0.36157 0.16797,-0.53906 z m -0.22656,0.76757 a 7.000021,6.9999866 0 0 0 -0.10351,0.58008 c 0.0278,-0.19459 0.0595,-0.38873 0.10351,-0.58008 z m -0.13476,0.77735 a 7.000021,6.9999866 0 0 0 -0.0469,0.7832 c 2.3e-4,-0.26269 0.0174,-0.52353 0.0469,-0.7832 z m -0.0469,0.7832 a 7.000021,6.9999866 0 0 0 0.0547,0.79688 c -0.0317,-0.26437 -0.0534,-0.53011 -0.0547,-0.79688 z m 0.0684,0.91602 a 7.000021,6.9999866 0 0 0 0.15234,0.79882 l 0.002,0.002 c -0.0682,-0.26371 -0.11734,-0.53146 -0.15429,-0.80078 z m 1.98437,4.03125 -0.002,0.002 8.56446,8.5664 c 1.70807,-0.45299 3.28041,-1.22485 4.66211,-2.23828 l -5.06836,-5.06836 a 7.0000119,6.9999738 0 0 1 -3.20894,0.79097 7.0000119,6.9999738 0 0 1 -4.94727,-2.05273 z"
       style="opacity:0.25;fill:url(#linearGradient4258);fill-opacity:1;stroke:none"
       inkscape:connector-curvature="0" />
    <path
       id="path4169"
       d="m 560.99998,538.36219 c -1.11747,0.004 -2.21779,0.27499 -3.20898,0.79102 l 0.58398,0.58398 0.16406,0.16406 2.66407,2.66407 0.70703,-0.70704 -2.31836,-2.31836 c 0.46071,-0.11475 0.93342,-0.17441 1.4082,-0.17773 3.31372,10e-6 6.00001,2.6863 6,6 -0.004,0.8487 -0.18879,1.68681 -0.54102,2.45898 l 0.75586,0.75586 c 0.51491,-0.99345 0.78416,-2.09587 0.78516,-3.21484 10e-6,-3.86598 -3.134,-6.99999 -7,-7 z m -6.21484,3.78516 c -0.51491,0.99346 -0.78415,2.09587 -0.78516,3.21484 -1e-5,3.86598 3.134,6.99999 7,7 1.11747,-0.004 2.21779,-0.27499 3.20898,-0.79102 l -0.58398,-0.58398 -0.16406,-0.16406 -2.66406,-2.66406 -0.70704,0.70703 2.31836,2.31836 c -0.46071,0.11475 -0.93342,0.17441 -1.4082,0.17773 -3.31372,-1e-5 -6,-2.6863 -6,-6 0.004,-0.8487 0.1888,-1.68681 0.54102,-2.45898 l -0.75586,-0.75586 z"
       style="opacity:1;fill:#ff812d;fill-opacity:1;stroke:none"
       inkscape:connector-curvature="0" />
  </g>
  <g
     transform="translate(-321,-529.36218)"
     id="system-shutdown">
    <rect
       style="opacity:1;fill:none;fill-opacity:1;stroke:none"
       id="rect4532"
       width="31.999998"
       height="31.999992"
       x="385"
       y="529.36218"
       ry="0" />
    <rect
       ry="15.000005"
       y="530.36218"
       x="386"
       height="30.000027"
       width="30.00001"
       id="rect4130-0"
       style="opacity:0.5;fill:#ff7d7d;fill-opacity:1;stroke:none" />
    <path
       id="rect4215"
       d="m 401.99998,538.36219 0,7 -2,0 4.71289,4.71289 a 6,6 0 0 1 -3.71289,1.28711 6,6 0 0 1 -4.24023,-1.75977 l -0.70899,0.70899 8.56445,8.56641 c 4.83476,-1.28222 8.61818,-5.06564 9.90039,-9.9004 l -8.5664,-8.56445 -0.70899,0.70899 a 6,6 0 0 1 1.1543,1.63476 l -4.39453,-4.39453 z"
       style="opacity:0.3;fill:url(#linearGradient4231);fill-opacity:1;stroke:none"
       inkscape:connector-curvature="0" />
    <path
       id="path4169-0"
       d="m 399.99998,538.36219 0,7 2,0 0,-7 -2,0 z m -1,0.29492 a 6.9999866,6.9999866 0 0 0 -5,6.70508 6.9999866,6.9999866 0 0 0 7,7 6.9999866,6.9999866 0 0 0 7,-7 6.9999866,6.9999866 0 0 0 -5,-6.70117 l 0,1.05078 a 5.9999866,5.9999866 0 0 1 4,5.65039 5.9999866,5.9999866 0 0 1 -6,6 5.9999866,5.9999866 0 0 1 -6,-6 5.9999866,5.9999866 0 0 1 4,-5.65039 l 0,-1.05469 z"
       style="opacity:1;fill:#d40000;fill-opacity:1;stroke:none"
       inkscape:connector-curvature="0" />
  </g>
  <g
     transform="translate(-321,-529.36218)"
     id="system-suspend-hibernate">
    <rect
       style="opacity:1;fill:none;fill-opacity:1;stroke:none"
       id="rect4538"
       width="31.999998"
       height="31.999992"
       x="481"
       y="529.36218"
       ry="0" />
    <rect
       ry="15.000005"
       y="530.36218"
       x="482"
       height="30.000027"
       width="30.00001"
       id="rect4130-1"
       style="opacity:0.7;fill:#c6afe9;fill-opacity:1;stroke:none" />
    <path
       id="rect4225"
       d="m 497.70701,537.65516 -1.41406,1.41406 1.33789,1.33789 c -0.20706,-0.0262 -0.41629,-0.0449 -0.63086,-0.0449 -1.20356,0 -2.28935,0.43921 -3.15039,1.14258 l -1.49609,-1.4961 -0.70704,0.70704 1.4961,1.49609 c -0.70338,0.86104 -1.14258,1.94683 -1.14258,3.15039 0,0.21457 0.0187,0.4238 0.0449,0.63086 l -1.33789,-1.33789 -1.41406,1.41406 2.10547,2.10547 1.2871,0.79492 0.64454,0.76953 -0.1836,0.1836 8.60156,8.60156 c 0.32534,-0.11678 0.64592,-0.24431 0.96094,-0.38086 3.14771,-1.40189 5.67038,-3.92456 7.07227,-7.07227 0.13655,-0.31502 0.26408,-0.6356 0.38086,-0.96093 l -12.45508,-12.45508 z m 5.29297,2.41406 -1.29297,1.29297 8.5332,8.5332 c 0.22633,-0.66477 0.404,-1.35043 0.5293,-2.05664 l -7.76953,-7.76953 z m -10,10 -1.29297,1.29297 7.76953,7.76953 c 0.70621,-0.1253 1.39187,-0.30297 2.05664,-0.5293 l -8.5332,-8.5332 z"
       style="opacity:0.3;fill:url(#linearGradient4289);fill-opacity:1;stroke:none"
       inkscape:connector-curvature="0" />
    <path
       inkscape:connector-curvature="0"
       style="opacity:1;fill:#6600ff;fill-opacity:1;stroke:none;stroke-width:2.79999995;stroke-miterlimit:4;stroke-dasharray:none;stroke-opacity:0.55026455"
       d="m 176,8 c -0.554,0 -1,0.446 -1,1 0,0.554 0.446,1 1,1 0.554,0 1,-0.446 1,-1 0,-0.554 -0.446,-1 -1,-1 z M 170.70703,10 170,10.707031 171.29297,12 172,11.292969 170.70703,10 Z M 181.29297,10 180,11.292969 180.70703,12 182,10.707031 181.29297,10 Z M 176,11 c -2.77,0 -5,2.23 -5,5 0,2.77 2.23,5 5,5 2.77,0 5,-2.23 5,-5 0,-2.77 -2.23,-5 -5,-5 z m 0,1 c 2.216,0 4,1.784 4,4 0,2.216 -1.784,4 -4,4 -2.216,0 -4,-1.784 -4,-4 0,-2.216 1.784,-4 4,-4 z m -7,3 c -0.554,0 -1,0.446 -1,1 0,0.554 0.446,1 1,1 0.554,0 1,-0.446 1,-1 0,-0.554 -0.446,-1 -1,-1 z m 14,0 c -0.554,0 -1,0.446 -1,1 0,0.554 0.446,1 1,1 0.554,0 1,-0.446 1,-1 0,-0.554 -0.446,-1 -1,-1 z M 171.29297,20 170,21.292969 170.70703,22 172,20.707031 171.29297,20 Z m 9.41406,0 L 180,20.707031 181.29297,22 182,21.292969 180.70703,20 Z M 176,22 c -0.554,0 -1,0.446 -1,1 0,0.554 0.446,1 1,1 0.554,0 1,-0.446 1,-1 0,-0.554 -0.446,-1 -1,-1 z"
       transform="translate(321,529.36218)"
       id="path4208" />
  </g>
  <g
     transform="translate(-321,-529.36218)"
     id="system-suspend">
    <rect
       ry="0"
       y="529.36218"
       x="353"
       height="31.999992"
       width="31.999998"
       id="rect4530"
       style="opacity:1;fill:none;fill-opacity:1;stroke:none" />
    <rect
       ry="15.000005"
       y="530.36218"
       x="354"
       height="30.000027"
       width="30.00001"
       id="rect4130-15"
       style="opacity:0.25;fill:#00ff00;fill-opacity:1;stroke:none" />
    <path
       id="rect4253-7"
       d="m 373.88279,540.34461 c -0.19767,0.18581 -0.51415,0.49137 -0.73047,0.69531 a 5.9999881,6 0 0 1 1.84766,4.32227 5.9999881,6 0 0 1 -6,6 5.9999881,6 0 0 1 -4.43555,-1.96875 c -0.22607,0.23247 -0.50836,0.50944 -0.71093,0.72266 l 8.76171,8.76172 c 4.83476,-1.28222 8.61818,-5.06564 9.90039,-9.9004 l -8.63281,-8.63281 z"
       style="opacity:0.3;fill:url(#linearGradient4291-6);fill-opacity:1;stroke:none"
       inkscape:connector-curvature="0" />
    <path
       id="path4269-4"
       d="m 368.99998,538.36219 a 7.000021,7.0000005 0 0 0 -7,7 7.000021,7.0000005 0 0 0 7,7 7.000021,7.0000005 0 0 0 7,-7 7.000021,7.0000005 0 0 0 -7,-7 z m 0,1 a 6.000021,6.0000033 0 0 1 5.91406,5 l -11.82422,0 a 6.000021,6.0000033 0 0 1 5.91016,-5 z m -5.91406,7 11.82422,0 a 6.000021,6.0000033 0 0 1 -5.91016,5 6.000021,6.0000033 0 0 1 -5.91406,-5 z"
       style="opacity:1;fill:#00ff00;fill-opacity:1;stroke:none"
       inkscape:connector-curvature="0" />
  </g>
  <g
     transform="translate(-321,-529.36218)"
     id="system-switch-user">
    <rect
       ry="0"
       y="529.36218"
       x="513"
       height="31.999992"
       width="31.999998"
       id="rect4540"
       style="opacity:1;fill:none;fill-opacity:1;stroke:none" />
    <rect
       ry="15.000005"
       y="530.36218"
       x="514"
       height="30.000027"
       width="30.00001"
       id="rect4130-6"
       style="fill:#afafe9;fill-opacity:1;stroke:none;opacity:0.7" />
    <path
       id="path4297"
       d="m 530.99998,539.36219 -1,1 0,2 1,1 1,1 0,1 -4,-4 -1,0 -2,0 -1,1 0,2 1,1 1,1 0,1 -2,0 -1,1 -1,2 -1,2 6.94727,6.94727 c 0.34867,0.0258 0.69725,0.0527 1.05273,0.0527 6.82044,0 12.46636,-4.83041 13.73047,-11.26953 l -8.73047,-8.73047 -1,0 -2,0 z"
       style="opacity:0.3;fill:url(#linearGradient4309);fill-opacity:1;fill-rule:evenodd;stroke:none;stroke-width:1px;stroke-linecap:butt;stroke-linejoin:miter;stroke-opacity:1"
       inkscape:connector-curvature="0" />
    <path
       id="path4202-8"
       d="m 531.99998,538.4618 c -1.662,0 -3,1.338 -3,3 0,1.45425 1.02502,2.66063 2.39453,2.93945 -1.16417,0.14028 -2.2016,0.67682 -2.97656,1.47266 a 6,6 0 0 1 0.92969,0.51172 c 0.70627,-0.62922 1.62765,-1.02344 2.65234,-1.02344 2.21602,0 4,1.78398 4,4 l -4.34961,0 a 6,6 0 0 1 0.26367,1 l 5.08594,0 0,-1 c 0,-2.56434 -1.91306,-4.66299 -4.39453,-4.96094 1.36951,-0.27882 2.39453,-1.4852 2.39453,-2.93945 0,-1.662 -1.338,-3 -3,-3 z m 0,1 c 1.108,0 2,0.892 2,2 0,1.108 -0.892,2 -2,2 -1.108,0 -2,-0.892 -2,-2 0,-1.108 0.892,-2 2,-2 z m -6,0.90039 c -1.662,0 -3,1.338 -3,3 0,1.662 1.338,3 3,3 1.662,0 3,-1.338 3,-3 0,-1.662 -1.338,-3 -3,-3 z m 0,6 c -2.77002,0 -5,2.22998 -5,5 l 0,1 10,0 0,-1 c 0,-2.77002 -2.22998,-5 -5,-5 z m 0,-5 c 1.108,0 2,0.892 2,2 0,1.108 -0.892,2 -2,2 -1.108,0 -2,-0.892 -2,-2 0,-1.108 0.892,-2 2,-2 z m 0,6 c 2.21602,0 4,1.78398 4,4 l -8,0 c 0,-2.21602 1.78398,-4 4,-4 z"
       style="fill:#000080;fill-opacity:1;stroke:none"
       inkscape:connector-curvature="0" />
  </g>
  <g
     transform="translate(-321,-529.36218)"
     id="system-users">
    <rect
       style="opacity:1;fill:none;fill-opacity:1;stroke:none"
       id="rect4534"
       width="31.999998"
       height="31.999992"
       x="417"
       y="529.36218"
       ry="0" />
    <rect
       ry="15.000005"
       y="530.36218"
       x="418"
       height="30.000027"
       width="30.00001"
       id="rect4130-12"
       style="fill:#eeaaff;fill-opacity:1;stroke:none;opacity:0.5" />
    <path
       id="path4297-7"
       d="m 434.99998,539.36219 -1,1 0,2 1,1 1,1 0,1 -4,-4 -1,0 -2,0 -1,1 0,2 1,1 1,1 0,1 -2,0 -1,1 -1,2 -1,2 6.94727,6.94727 c 0.34867,0.0258 0.69725,0.0527 1.05273,0.0527 6.82044,0 12.46636,-4.83041 13.73047,-11.26953 l -8.73047,-8.73047 -1,0 -2,0 z"
       style="opacity:0.3;fill:url(#linearGradient4512);fill-opacity:1;fill-rule:evenodd;stroke:none;stroke-width:1px;stroke-linecap:butt;stroke-linejoin:miter;stroke-opacity:1"
       inkscape:connector-curvature="0" />
    <path
       id="path4202-5"
       d="m 435.99998,538.4618 c -1.662,0 -3,1.338 -3,3 0,1.45425 1.02502,2.66063 2.39453,2.93945 -1.16417,0.14028 -2.2016,0.67682 -2.97656,1.47266 a 6,6 0 0 1 0.92969,0.51172 c 0.70627,-0.62922 1.62765,-1.02344 2.65234,-1.02344 2.21602,0 4,1.78398 4,4 l -4.34961,0 a 6,6 0 0 1 0.26367,1 l 5.08594,0 0,-1 c 0,-2.56434 -1.91306,-4.66299 -4.39453,-4.96094 1.36951,-0.27882 2.39453,-1.4852 2.39453,-2.93945 0,-1.662 -1.338,-3 -3,-3 z m 0,1 c 1.108,0 2,0.892 2,2 0,1.108 -0.892,2 -2,2 -1.108,0 -2,-0.892 -2,-2 0,-1.108 0.892,-2 2,-2 z m -6,0.90039 c -1.662,0 -3,1.338 -3,3 0,1.662 1.338,3 3,3 1.662,0 3,-1.338 3,-3 0,-1.662 -1.338,-3 -3,-3 z m 0,6 c -2.77002,0 -5,2.22998 -5,5 l 0,1 10,0 0,-1 c 0,-2.77002 -2.22998,-5 -5,-5 z m 0,-5 c 1.108,0 2,0.892 2,2 0,1.108 -0.892,2 -2,2 -1.108,0 -2,-0.892 -2,-2 0,-1.108 0.892,-2 2,-2 z m 0,6 c 2.21602,0 4,1.78398 4,4 l -8,0 c 0,-2.21602 1.78398,-4 4,-4 z"
       style="fill:#ff00ff;fill-opacity:1;stroke:none"
       inkscape:connector-curvature="0" />
  </g>
  <g
     inkscape:label="Capa 1"
     id="22-22-system-users"
     transform="matrix(1.499268,0,0,1.5,-733.67628,-910.17889)">
    <rect
       style="opacity:0.4;fill:#ed1515;fill-opacity:0.00392157;stroke:none"
       id="rect3010-99-4"
       width="14.673867"
       height="14.666705"
       x="557.38953"
       y="586.78589" />
    <path
       style="opacity:1;fill:#ff00ff;fill-opacity:1;stroke:none"
       d="m 562.72547,590.78593 c -1.10854,0 -2.00098,0.892 -2.00098,2 0,1.108 0.89244,2 2.00098,2 1.10854,0 2.00097,-0.892 2.00097,-2 0,-1.108 -0.89243,-2 -2.00097,-2 z m 0,4.66666 c -1.84758,0 -3.33496,1.48666 -3.33496,3.33334 l 0,0.66666 6.66992,0 0,-0.66666 c 0,-1.84668 -1.48738,-3.33334 -3.33496,-3.33334 z m 0,0.66667 c 1.47806,0 2.66797,1.18932 2.66797,2.66667 l -5.33594,0 c 0,-1.47735 1.1899,-2.66667 2.66797,-2.66667 z"
       id="rect4109"
       inkscape:connector-curvature="0"
       sodipodi:nodetypes="sssssssccsssccs"
       class="ColorScheme-Text" />
    <path
       inkscape:connector-curvature="0"
       style="opacity:1;fill:#ff00ff;fill-opacity:1;stroke:none"
       d="m 566.72742,588.78593 c -1.10854,0 -2.00098,0.892 -2.00098,2 0,1.108 0.89244,2 2.00098,2 1.10854,0 2.00098,-0.892 2.00098,-2 0,-1.108 -0.89244,-2 -2.00098,-2 z m 0,4.66666 c -0.43111,0 -0.83774,0.0894 -1.21283,0.24089 l 0.30353,0.60937 c 0.28535,-0.107 0.58546,-0.18359 0.9093,-0.18359 1.47807,0 2.66797,1.18932 2.66797,2.66667 l -2.33447,0 0.33349,0.66666 2.66797,0 0,-0.66666 c 0,-1.84668 -1.48738,-3.33334 -3.33496,-3.33334 z"
       id="path4139"
       class="ColorScheme-Text" />
  </g>
</svg>
