<?xml version="1.0" encoding="UTF-8" standalone="no"?>
<svg
   xmlns:dc="http://purl.org/dc/elements/1.1/"
   xmlns:cc="http://creativecommons.org/ns#"
   xmlns:rdf="http://www.w3.org/1999/02/22-rdf-syntax-ns#"
   xmlns:svg="http://www.w3.org/2000/svg"
   xmlns="http://www.w3.org/2000/svg"
   xmlns:sodipodi="http://sodipodi.sourceforge.net/DTD/sodipodi-0.dtd"
   xmlns:inkscape="http://www.inkscape.org/namespaces/inkscape"
   version="1.1"
   id="svg2"
   viewBox="0 0 54 64"
   sodipodi:docname="view.svg"
   inkscape:version="0.92.4 (5da689c313, 2019-01-14)">
  <sodipodi:namedview
     pagecolor="#ffffff"
     bordercolor="#000000"
     borderopacity="1"
     objecttolerance="10"
     gridtolerance="10"
     guidetolerance="10"
     inkscape:pageopacity="0"
     inkscape:pageshadow="2"
     inkscape:window-width="1280"
     inkscape:window-height="977"
     id="namedview18"
     showgrid="false"
     inkscape:pagecheckerboard="false"
     inkscape:zoom="5.5276223"
     inkscape:cx="-11.309888"
     inkscape:cy="25.918527"
     inkscape:window-x="0"
     inkscape:window-y="0"
     inkscape:window-maximized="1"
     inkscape:current-layer="svg2" />
  <metadata
     id="metadata22">
    <rdf:RDF>
      <cc:Work
         rdf:about="">
        <dc:format>image/svg+xml</dc:format>
        <dc:type
           rdf:resource="http://purl.org/dc/dcmitype/StillImage" />
        <dc:title />
      </cc:Work>
    </rdf:RDF>
  </metadata>
  <defs
     id="defs3615">
    <style
       type="text/css"
       id="current-color-scheme">
      .ColorScheme-Text {
        color:#31363b;
      }
      .ColorScheme-Background{
        color:#E9E8E8;
      }
      .ColorScheme-ViewText {
        color:#31363b;
      }
      .ColorScheme-ViewBackground{
        color:#ffffff;
      }
      .ColorScheme-ViewHover {
        color:#000000;
      }
      .ColorScheme-ViewFocus{
        color:#5a5a5a;
      }
      .ColorScheme-ButtonText {
        color:#31363b;
      }
      .ColorScheme-ButtonBackground{
        color:#E9E8E8;
      }
      .ColorScheme-ButtonHover {
        color:#1489ff;
      }
      .ColorScheme-ButtonFocus{
        color:#2B74C7;
      }
</style>
  </defs>
  <g
     id="22-22-view-refresh">
    <path
       id="path7"
       class="ColorScheme-Text"
       d="m 11,13 c -1.441714,0 -2.802961,0.36925 -3.96875,1.03125 l 0.71875,0.6875 0.0625,0.0625 2.75,2.78125 0.71875,-0.71875 -2.5,-2.46875 C 9.479582,14.14031 10.220394,14 11,14 c 3.87797,0 7,3.122 7,7 0,1.1625 -0.283875,2.25585 -0.78125,3.21875 l 0.75,0.75 C 18.630801,23.80295 19,22.4417 19,21 19,16.568 15.431966,13 11,13 Z M 4.03125,17.03125 C 3.369199,18.19705 3,19.5583 3,21 c 0,4.432 3.568034,8 8,8 1.441714,0 2.802961,-0.36925 3.96875,-1.03125 l -0.6875,-0.6875 -0.0625,-0.0625 L 11.4375,24.4375 10.75,25.15625 13.21875,27.625 C 12.520418,27.85969 11.779605,28 11,28 7.12203,28 4,24.878 4,21 4,19.8375 4.283876,18.74415 4.78125,17.78125 l -0.75,-0.75 z"
       style="fill:#8a496b;fill-opacity:1;stroke:none;opacity:0.65" />
    <path
       id="path9"
       d="M 0,10 0,32 22,32 22,10 0,10 Z"
       style="opacity:1;fill:none" />
  </g>
  <g
     id="view-refresh">
    <path
       id="path12"
       class="ColorScheme-Text"
       d="M 38,4 A 12,12 0 0 0 31.916016,5.671875 L 37.293,11.05 38,10.34 33.596,5.936 A 11,11 0 0 1 38,5 11,11 0 0 1 49,16 11,11 0 0 1 47.595703,21.351562 L 48.328,22.08 A 12,12 0 0 0 50,16 12,12 0 0 0 38,4 M 27.671875,9.916016 A 12,12 0 0 0 26,16 12,12 0 0 0 38,28 12,12 0 0 0 44.08398,26.328125 L 38.707,20.949 38,21.656 42.406,26.06 A 11,11 0 0 1 38,27 11,11 0 0 1 27,16 11,11 0 0 1 28.404297,10.648438 Z"
       style="fill:#8a496b;fill-opacity:1;stroke:none;opacity:0.65" />
    <path
       id="path14"
       d="M 22,0 22,32 54,32 54,0 22,0 Z"
       style="opacity:1;fill:none" />
  </g>
  <g
     transform="translate(0,32)"
     id="22-22-view-history">
    <path
       id="path13"
       class="ColorScheme-Text"
       d="m 11,13 c -4.431998,0 -8,3.568002 -8,8 0,4.431998 3.568002,8 8,8 4.431998,0 8,-3.568002 8,-8 0,-4.431998 -3.568002,-8 -8,-8 z m 0,1 c 3.877999,0 7,3.122001 7,7 0,3.877999 -3.122001,7 -7,7 -3.877999,0 -7,-3.122001 -7,-7 0,-3.877999 3.122001,-7 7,-7 z m -1,1 0,7 1,0 5,0 0,-1 -5,0 0,-6 -1,0 z"
       style="fill:#8a496b;fill-opacity:1;stroke:none;opacity:0.65" />
    <path
       id="path15"
       d="M 0,10 0,32 22,32 22,10 0,10 Z"
       style="opacity:1;fill:none" />
  </g>
  <path
     inkscape:connector-curvature="0"
     style="opacity:1;fill:none"
     d="m 28.983051,33.830508 v 32 h 32 v -32 z"
     id="path24" />
  <g
     id="view-history"
     transform="translate(0.99861526,-55.581253)">
    <rect
       ry="0"
       y="87.581253"
       x="21.001385"
       height="32"
       width="32"
       id="rect883"
       style="opacity:1;fill:none;fill-opacity:1;fill-rule:nonzero;stroke:none;stroke-width:2.19763398;stroke-linecap:round;stroke-miterlimit:4;stroke-dasharray:none;stroke-dashoffset:0;stroke-opacity:1" />
    <g
       id="g873">
      <circle
         style="opacity:1;fill:#8a496b;fill-opacity:1;fill-rule:nonzero;stroke:none;stroke-width:1.32269621;stroke-linecap:round;stroke-miterlimit:4;stroke-dasharray:none;stroke-dashoffset:0;stroke-opacity:1"
         id="path833"
         cx="37.001385"
         cy="103.58125"
         r="15.724186" />
      <circle
         style="opacity:1;fill:none;fill-opacity:1;fill-rule:nonzero;stroke:#fefefe;stroke-width:2.33738971;stroke-linecap:round;stroke-miterlimit:4;stroke-dasharray:none;stroke-dashoffset:0;stroke-opacity:1"
         id="path835"
         cx="37.001385"
         cy="103.58125"
         r="12.884754" />
      <rect
         style="opacity:1;fill:#1a1a1a;fill-opacity:1;fill-rule:nonzero;stroke:none;stroke-width:1.10122979;stroke-linecap:round;stroke-miterlimit:4;stroke-dasharray:none;stroke-dashoffset:0;stroke-opacity:1"
         id="rect837"
         width="1.1049999"
         height="11.586578"
         x="35.898777"
         y="94.709656"
         ry="1.4836471" />
      <rect
         ry="1.1798414"
         y="-45.112774"
         x="105.27925"
         height="9.2139997"
         width="1.105"
         id="rect839"
         style="opacity:1;fill:#1a1a1a;fill-opacity:1;fill-rule:nonzero;stroke:none;stroke-width:0.98202932;stroke-linecap:round;stroke-miterlimit:4;stroke-dasharray:none;stroke-dashoffset:0;stroke-opacity:1"
         transform="rotate(90)" />
    </g>
  </g>
</svg>
